<svg width="21" height="21" viewBox="0 0 21 21" fill="none" xmlns="http://www.w3.org/2000/svg">
<g id="instagram-white">
<path id="Vector" d="M10.6217 7.50009C9.18808 7.50009 8.01816 8.67001 8.01816 10.1036C8.01816 11.5372 9.18808 12.7071 10.6217 12.7071C12.0553 12.7071 13.2252 11.5372 13.2252 10.1036C13.2252 8.67001 12.0553 7.50009 10.6217 7.50009ZM18.4303 10.1036C18.4303 9.02548 18.44 7.95712 18.3795 6.88095C18.3189 5.63095 18.0338 4.52158 17.1197 3.60751C16.2037 2.6915 15.0963 2.4083 13.8463 2.34775C12.7682 2.2872 11.6998 2.29697 10.6236 2.29697C9.5455 2.29697 8.47714 2.2872 7.40097 2.34775C6.15097 2.4083 5.0416 2.69345 4.12753 3.60751C3.21152 4.52353 2.92832 5.63095 2.86777 6.88095C2.80722 7.95908 2.81699 9.02744 2.81699 10.1036C2.81699 11.1798 2.80722 12.2501 2.86777 13.3263C2.92832 14.5763 3.21347 15.6856 4.12753 16.5997C5.04355 17.5157 6.15097 17.7989 7.40097 17.8595C8.4791 17.92 9.54746 17.9102 10.6236 17.9102C11.7018 17.9102 12.7701 17.92 13.8463 17.8595C15.0963 17.7989 16.2057 17.5138 17.1197 16.5997C18.0357 15.6837 18.3189 14.5763 18.3795 13.3263C18.442 12.2501 18.4303 11.1817 18.4303 10.1036ZM10.6217 14.1095C8.40488 14.1095 6.61582 12.3204 6.61582 10.1036C6.61582 7.88681 8.40488 6.09775 10.6217 6.09775C12.8385 6.09775 14.6275 7.88681 14.6275 10.1036C14.6275 12.3204 12.8385 14.1095 10.6217 14.1095ZM14.7916 6.86923C14.274 6.86923 13.856 6.45126 13.856 5.93369C13.856 5.41611 14.274 4.99814 14.7916 4.99814C15.3092 4.99814 15.7271 5.41611 15.7271 5.93369C15.7273 6.05659 15.7032 6.17831 15.6562 6.29189C15.6093 6.40546 15.5404 6.50866 15.4535 6.59556C15.3666 6.68247 15.2634 6.75137 15.1498 6.79833C15.0362 6.84529 14.9145 6.86939 14.7916 6.86923Z" fill="#FAFAFA"/>
</g>
</svg>
