<svg width="21" height="21" viewBox="0 0 21 21" fill="none" xmlns="http://www.w3.org/2000/svg">
<g id="linkedin-icon">
<g id="Group">
<path id="Vector" fill-rule="evenodd" clip-rule="evenodd" d="M2.38672 3.1205C2.38672 2.74252 2.53169 2.38002 2.78975 2.11274C3.04781 1.84547 3.39781 1.69531 3.76276 1.69531H17.4798C17.6606 1.69501 17.8398 1.73165 18.0069 1.80315C18.1741 1.87464 18.326 1.97958 18.454 2.11197C18.5819 2.24435 18.6834 2.40157 18.7526 2.57463C18.8218 2.74769 18.8574 2.93318 18.8573 3.1205V17.3274C18.8575 17.5148 18.822 17.7003 18.7529 17.8735C18.6838 18.0466 18.5824 18.2039 18.4545 18.3364C18.3267 18.469 18.1748 18.5741 18.0077 18.6457C17.8405 18.7174 17.6614 18.7542 17.4805 18.7541H3.76276C3.58199 18.7541 3.403 18.7172 3.236 18.6456C3.069 18.5739 2.91727 18.4689 2.78949 18.3364C2.6617 18.204 2.56036 18.0468 2.49125 17.8738C2.42214 17.7008 2.38662 17.5154 2.38672 17.3282V3.1205ZM8.90608 8.19938H11.1363V9.35938C11.4583 8.69253 12.2818 8.09237 13.5193 8.09237C15.8919 8.09237 16.4541 9.42064 16.4541 11.8577V16.3721H14.0531V12.4129C14.0531 11.0249 13.7312 10.2418 12.9137 10.2418C11.7794 10.2418 11.3078 11.0862 11.3078 12.4129V16.3721H8.90608V8.19938ZM4.78843 16.2659H7.19014V8.09237H4.78843V16.2651V16.2659ZM7.53378 5.42654C7.53831 5.63953 7.50171 5.8513 7.42615 6.04944C7.35058 6.24757 7.23757 6.42808 7.09374 6.58037C6.9499 6.73265 6.77815 6.85365 6.58856 6.93625C6.39896 7.01886 6.19535 7.06141 5.98966 7.06141C5.78397 7.06141 5.58036 7.01886 5.39076 6.93625C5.20117 6.85365 5.02942 6.73265 4.88558 6.58037C4.74175 6.42808 4.62874 6.24757 4.55317 6.04944C4.47761 5.8513 4.44101 5.63953 4.44554 5.42654C4.45443 5.00849 4.62102 4.61066 4.90963 4.31825C5.19824 4.02585 5.58592 3.86211 5.98966 3.86211C6.3934 3.86211 6.78108 4.02585 7.06969 4.31825C7.3583 4.61066 7.52489 5.00849 7.53378 5.42654Z" fill="#FAFAFA"/>
</g>
</g>
</svg>
