<svg width="201" height="64" viewBox="0 0 201 64" fill="none" xmlns="http://www.w3.org/2000/svg">
<path d="M51.2306 44.6513L44.5029 18.6328H47.6995L53.6466 42.3468H53.7952L60.6344 18.6328H63.831L70.8188 42.3468H70.9675L76.8774 18.6328H80.0739L73.2348 44.6513H68.4028L62.2698 24.1339H62.1212L56.0626 44.6513H51.2306ZM81.9248 44.6513V18.6328H85.047V29.3004H85.1957C85.9391 28.1357 86.8436 27.2561 87.9091 26.6614C88.9994 26.0667 90.1641 25.7693 91.403 25.7693C92.8154 25.7693 94.0544 26.0667 95.1199 26.6614C96.1855 27.2314 97.0032 28.1234 97.5731 29.3376C98.1678 30.527 98.4651 32.0385 98.4651 33.8722V44.6513H95.3801V34.2067C95.3801 32.2987 94.9837 30.8615 94.1907 29.8951C93.4226 28.9287 92.2703 28.4455 90.7339 28.4455C89.6685 28.4455 88.7021 28.7057 87.8347 29.2261C86.9675 29.7464 86.2861 30.5022 85.7904 31.4934C85.2949 32.4598 85.047 33.6616 85.047 35.0988V44.6513H81.9248ZM107.512 45.0973C106.05 45.0973 104.823 44.8372 103.832 44.3168C102.841 43.7964 102.097 43.1026 101.602 42.2353C101.131 41.368 100.896 40.4264 100.896 39.4104C100.896 38.1467 101.218 37.0812 101.862 36.2139C102.531 35.3465 103.46 34.6899 104.65 34.2439C105.864 33.7731 107.289 33.5377 108.924 33.5377H113.905C113.905 32.3235 113.719 31.32 113.347 30.527C112.976 29.734 112.443 29.1517 111.749 28.78C111.055 28.3836 110.225 28.1853 109.259 28.1853C108.045 28.1853 106.991 28.4951 106.099 29.1145C105.207 29.734 104.662 30.6881 104.464 31.9766H101.267C101.416 30.6385 101.85 29.511 102.568 28.5942C103.312 27.6774 104.253 26.9835 105.393 26.5127C106.558 26.0171 107.846 25.7693 109.259 25.7693C111.018 25.7693 112.468 26.0914 113.608 26.7357C114.772 27.3552 115.627 28.2349 116.172 29.3747C116.742 30.4898 117.027 31.8032 117.027 33.3147V44.6513H114.425L114.128 41.4919H113.979C113.632 42.0866 113.223 42.607 112.753 43.053C112.307 43.4991 111.811 43.8707 111.266 44.1681C110.721 44.4655 110.126 44.6885 109.482 44.8371C108.862 45.0106 108.206 45.0973 107.512 45.0973ZM108.069 42.4583C109.011 42.4583 109.841 42.2849 110.56 41.9379C111.278 41.5663 111.885 41.0706 112.381 40.4512C112.877 39.8317 113.248 39.1378 113.496 38.3697C113.769 37.5767 113.905 36.7714 113.905 35.9537H109.184C107.97 35.9537 106.991 36.1024 106.248 36.3997C105.505 36.6723 104.972 37.0563 104.65 37.552C104.328 38.0476 104.167 38.6174 104.167 39.2618C104.167 39.9061 104.315 40.4759 104.613 40.9715C104.935 41.4423 105.381 41.814 105.951 42.0866C106.545 42.3344 107.252 42.4583 108.069 42.4583ZM126.63 44.6513C125.515 44.6513 124.548 44.4779 123.731 44.1309C122.913 43.784 122.281 43.2017 121.835 42.384C121.414 41.5415 121.203 40.414 121.203 39.0016V28.4455H118.007V26.2153H121.203L121.575 21.7922H124.325V26.2153H129.752V28.4455H124.325V39.0016C124.325 40.2901 124.561 41.1574 125.032 41.6034C125.502 42.0247 126.333 42.2353 127.522 42.2353H129.455V44.6513H126.63ZM131.617 44.6513V18.6328H134.739V30.1553L145.592 18.6328H149.532L137.527 31.2332L149.681 44.6513H145.703L134.739 32.6085V44.6513H131.617ZM151.359 44.6513V26.2153H154.109L154.407 29.1145H154.555C155.2 28.0985 156.042 27.2933 157.083 26.6985C158.124 26.0791 159.375 25.7693 160.837 25.7693C162.249 25.7693 163.489 26.0667 164.554 26.6614C165.619 27.2314 166.437 28.1234 167.007 29.3376C167.602 30.527 167.899 32.0385 167.899 33.8722V44.6513H164.777V34.2067C164.777 32.2987 164.368 30.8615 163.55 29.8951C162.733 28.9287 161.556 28.4455 160.019 28.4455C158.954 28.4455 157.999 28.7057 157.157 29.2261C156.34 29.7464 155.683 30.5022 155.187 31.4934C154.717 32.4598 154.481 33.6616 154.481 35.0988V44.6513H151.359ZM179.293 45.0973C177.557 45.0973 175.996 44.7009 174.61 43.9079C173.222 43.1149 172.119 41.9998 171.302 40.5627C170.508 39.1006 170.112 37.3909 170.112 35.4333C170.112 33.4758 170.521 31.7783 171.339 30.3411C172.157 28.8791 173.259 27.7517 174.647 26.9587C176.059 26.1657 177.632 25.7693 179.367 25.7693C181.101 25.7693 182.663 26.1657 184.051 26.9587C185.437 27.7517 186.528 28.8791 187.322 30.3411C188.139 31.7783 188.548 33.4758 188.548 35.4333C188.548 37.3909 188.139 39.1006 187.322 40.5627C186.504 41.9998 185.389 43.1149 183.976 43.9079C182.588 44.7009 181.027 45.0973 179.293 45.0973ZM179.293 42.6813C180.358 42.6813 181.349 42.4211 182.267 41.9008C183.183 41.3557 183.926 40.5502 184.497 39.4848C185.066 38.4193 185.352 37.0688 185.352 35.4333C185.352 33.7979 185.066 32.4473 184.497 31.3819C183.951 30.2915 183.22 29.4862 182.304 28.9659C181.386 28.4455 180.408 28.1853 179.367 28.1853C178.327 28.1853 177.334 28.4455 176.394 28.9659C175.476 29.4862 174.733 30.2915 174.164 31.3819C173.593 32.4473 173.309 33.7979 173.309 35.4333C173.309 37.0688 173.593 38.4193 174.164 39.4848C174.733 40.5502 175.465 41.3557 176.357 41.9008C177.273 42.4211 178.252 42.6813 179.293 42.6813ZM197.556 44.6513C196.441 44.6513 195.475 44.4779 194.657 44.1309C193.839 43.784 193.207 43.2017 192.761 42.384C192.341 41.5415 192.129 40.414 192.129 39.0016V28.4455H188.933V26.2153H192.129L192.501 21.7922H195.251V26.2153H200.678V28.4455H195.251V39.0016C195.251 40.2901 195.487 41.1574 195.958 41.6034C196.429 42.0247 197.259 42.2353 198.448 42.2353H200.381V44.6513H197.556Z" fill="black"/>
<path d="M23.4752 32.0738L34.7839 43.3826L30.9848 45.6666C30.5376 45.9355 30.042 46.1021 29.5362 46.1535C29.0304 46.2051 28.528 46.1401 28.0679 45.9637C27.6078 45.7873 27.2022 45.5041 26.8827 45.1361C26.5632 44.7681 26.3383 44.3251 26.2253 43.8415L23.4752 32.0738ZM23.4752 32.0738L19.8566 44.0742C19.7079 44.5674 19.4499 45.028 19.1026 45.4203C18.7552 45.8127 18.3279 46.1264 17.8537 46.337C17.3795 46.5475 16.871 46.6495 16.3677 46.6347C15.8643 46.6202 15.3795 46.4894 14.9508 46.2525L11.3086 44.2403L23.4752 32.0738ZM23.4752 32.0738L11.3086 44.2403L7.28418 36.9559L23.4752 32.0738ZM23.4752 32.0738L7.28418 36.9559L7.59815 28.3633L23.4752 32.0738ZM23.4752 32.0738L7.59815 28.3633L12.1663 20.765L23.4752 32.0738ZM23.4752 32.0738L12.1663 20.765L19.7647 16.1968L23.4752 32.0738ZM23.4752 32.0738L19.7647 16.1968L28.3573 15.8828L23.4752 32.0738ZM23.4752 32.0738L28.3573 15.8828L35.6417 19.9072L23.4752 32.0738ZM23.4752 32.0738L35.6417 19.9072L39.6661 27.1916L23.4752 32.0738ZM23.4752 32.0738L39.6661 27.1916L39.3522 35.7842L23.4752 32.0738ZM23.4752 32.0738L39.3522 35.7842L34.7839 43.3826L23.4752 32.0738Z" fill="black"/>
</svg>
