<svg width="201" height="64" viewBox="0 0 1406 339" fill="none" xmlns="http://www.w3.org/2000/svg">
<path d="M358.36 258L311.3 76H333.66L375.26 241.88H376.3L424.14 76H446.5L495.38 241.88H496.42L537.76 76H560.12L512.28 258H478.48L435.58 114.48H434.54L392.16 258H358.36ZM573.067 258V76H594.907V150.62H595.947C601.147 142.473 607.474 136.32 614.927 132.16C622.554 128 630.701 125.92 639.367 125.92C649.247 125.92 657.914 128 665.367 132.16C672.821 136.147 678.541 142.387 682.527 150.88C686.687 159.2 688.767 169.773 688.767 182.6V258H667.187V184.94C667.187 171.593 664.414 161.54 658.867 154.78C653.494 148.02 645.434 144.64 634.687 144.64C627.234 144.64 620.474 146.46 614.407 150.1C608.341 153.74 603.574 159.027 600.107 165.96C596.641 172.72 594.907 181.127 594.907 191.18V258H573.067ZM752.049 261.12C741.822 261.12 733.242 259.3 726.309 255.66C719.375 252.02 714.175 247.167 710.709 241.1C707.415 235.033 705.769 228.447 705.769 221.34C705.769 212.5 708.022 205.047 712.529 198.98C717.209 192.913 723.709 188.32 732.029 185.2C740.522 181.907 750.489 180.26 761.929 180.26H796.769C796.769 171.767 795.469 164.747 792.869 159.2C790.269 153.653 786.542 149.58 781.689 146.98C776.835 144.207 771.029 142.82 764.269 142.82C755.775 142.82 748.409 144.987 742.169 149.32C735.929 153.653 732.115 160.327 730.729 169.34H708.369C709.409 159.98 712.442 152.093 717.469 145.68C722.669 139.267 729.255 134.413 737.229 131.12C745.375 127.653 754.389 125.92 764.269 125.92C776.575 125.92 786.715 128.173 794.689 132.68C802.835 137.013 808.815 143.167 812.629 151.14C816.615 158.94 818.609 168.127 818.609 178.7V258H800.409L798.329 235.9H797.289C794.862 240.06 792.002 243.7 788.709 246.82C785.589 249.94 782.122 252.54 778.309 254.62C774.495 256.7 770.335 258.26 765.829 259.3C761.495 260.513 756.902 261.12 752.049 261.12ZM755.949 242.66C762.535 242.66 768.342 241.447 773.369 239.02C778.395 236.42 782.642 232.953 786.109 228.62C789.575 224.287 792.175 219.433 793.909 214.06C795.815 208.513 796.769 202.88 796.769 197.16H763.749C755.255 197.16 748.409 198.2 743.209 200.28C738.009 202.187 734.282 204.873 732.029 208.34C729.775 211.807 728.649 215.793 728.649 220.3C728.649 224.807 729.689 228.793 731.769 232.26C734.022 235.553 737.142 238.153 741.129 240.06C745.289 241.793 750.229 242.66 755.949 242.66ZM885.78 258C877.98 258 871.22 256.787 865.5 254.36C859.78 251.933 855.36 247.86 852.24 242.14C849.293 236.247 847.82 228.36 847.82 218.48V144.64H825.46V129.04H847.82L850.42 98.1H869.66V129.04H907.62V144.64H869.66V218.48C869.66 227.493 871.307 233.56 874.6 236.68C877.893 239.627 883.7 241.1 892.02 241.1H905.54V258H885.78ZM920.665 258V76H942.505V156.6L1018.42 76H1045.98L962.005 164.14L1047.02 258H1019.2L942.505 173.76V258H920.665ZM1058.76 258V129.04H1078L1080.08 149.32H1081.12C1085.63 142.213 1091.52 136.58 1098.8 132.42C1106.08 128.087 1114.83 125.92 1125.06 125.92C1134.94 125.92 1143.61 128 1151.06 132.16C1158.51 136.147 1164.23 142.387 1168.22 150.88C1172.38 159.2 1174.46 169.773 1174.46 182.6V258H1152.62V184.94C1152.62 171.593 1149.76 161.54 1144.04 154.78C1138.32 148.02 1130.09 144.64 1119.34 144.64C1111.89 144.64 1105.21 146.46 1099.32 150.1C1093.6 153.74 1089.01 159.027 1085.54 165.96C1082.25 172.72 1080.6 181.127 1080.6 191.18V258H1058.76ZM1254.16 261.12C1242.02 261.12 1231.1 258.347 1221.4 252.8C1211.69 247.253 1203.98 239.453 1198.26 229.4C1192.71 219.173 1189.94 207.213 1189.94 193.52C1189.94 179.827 1192.8 167.953 1198.52 157.9C1204.24 147.673 1211.95 139.787 1221.66 134.24C1231.54 128.693 1242.54 125.92 1254.68 125.92C1266.81 125.92 1277.73 128.693 1287.44 134.24C1297.14 139.787 1304.77 147.673 1310.32 157.9C1316.04 167.953 1318.9 179.827 1318.9 193.52C1318.9 207.213 1316.04 219.173 1310.32 229.4C1304.6 239.453 1296.8 247.253 1286.92 252.8C1277.21 258.347 1266.29 261.12 1254.16 261.12ZM1254.16 244.22C1261.61 244.22 1268.54 242.4 1274.96 238.76C1281.37 234.947 1286.57 229.313 1290.56 221.86C1294.54 214.407 1296.54 204.96 1296.54 193.52C1296.54 182.08 1294.54 172.633 1290.56 165.18C1286.74 157.553 1281.63 151.92 1275.22 148.28C1268.8 144.64 1261.96 142.82 1254.68 142.82C1247.4 142.82 1240.46 144.64 1233.88 148.28C1227.46 151.92 1222.26 157.553 1218.28 165.18C1214.29 172.633 1212.3 182.08 1212.3 193.52C1212.3 204.96 1214.29 214.407 1218.28 221.86C1222.26 229.313 1227.38 234.947 1233.62 238.76C1240.03 242.4 1246.88 244.22 1254.16 244.22ZM1381.91 258C1374.11 258 1367.35 256.787 1361.63 254.36C1355.91 251.933 1351.49 247.86 1348.37 242.14C1345.43 236.247 1343.95 228.36 1343.95 218.48V144.64H1321.59V129.04H1343.95L1346.55 98.1H1365.79V129.04H1403.75V144.64H1365.79V218.48C1365.79 227.493 1367.44 233.56 1370.73 236.68C1374.03 239.627 1379.83 241.1 1388.15 241.1H1401.67V258H1381.91Z" fill="white"/>
<path d="M164.211 170.011L243.316 249.116L216.741 265.093C213.613 266.974 210.146 268.139 206.608 268.499C203.07 268.86 199.556 268.405 196.337 267.171C193.119 265.937 190.282 263.956 188.047 261.382C185.812 258.808 184.239 255.709 183.448 252.326L164.211 170.011ZM164.211 170.011L138.899 253.954C137.859 257.404 136.054 260.626 133.625 263.37C131.195 266.115 128.206 268.309 124.889 269.782C121.572 271.255 118.015 271.968 114.494 271.865C110.973 271.763 107.582 270.848 104.583 269.191L79.1055 255.116L164.211 170.011ZM164.211 170.011L79.1055 255.116L50.9547 204.161L164.211 170.011ZM164.211 170.011L50.9547 204.161L53.1509 144.056L164.211 170.011ZM164.211 170.011L53.1509 144.056L85.1055 90.9053L164.211 170.011ZM164.211 170.011L85.1055 90.9053L138.256 58.9507L164.211 170.011ZM164.211 170.011L138.256 58.9507L198.362 56.7545L164.211 170.011ZM164.211 170.011L198.362 56.7545L249.316 84.9053L164.211 170.011ZM164.211 170.011L249.316 84.9053L277.467 135.86L164.211 170.011ZM164.211 170.011L277.467 135.86L275.271 195.965L164.211 170.011ZM164.211 170.011L275.271 195.965L243.316 249.116L164.211 170.011Z" fill="white"/>
</svg>
